<svg width="34" height="34" viewBox="0 0 34 34" fill="none" xmlns="http://www.w3.org/2000/svg">
<path d="M17.0013 32.5832C8.39511 32.5832 1.41797 25.606 1.41797 16.9998C1.41797 8.39364 8.39511 1.4165 17.0013 1.4165C25.6075 1.4165 32.5846 8.39364 32.5846 16.9998C32.5846 25.606 25.6075 32.5832 17.0013 32.5832Z" fill="#FAD207"/>
<path d="M3.8154 16.9998C3.8154 8.79701 10.1542 2.07939 18.2 1.46685C17.8038 1.43688 17.4053 1.4165 17.0013 1.4165C8.39511 1.4165 1.41797 8.39364 1.41797 16.9998C1.41797 25.606 8.39511 32.5832 17.0013 32.5832C17.4053 32.5832 17.8038 32.5628 18.2 32.5328C10.1542 31.9203 3.8154 25.2027 3.8154 16.9998Z" fill="#FA8C16"/>
<path d="M25 27H23V25C23 24.2044 22.6839 23.4413 22.1213 22.8787C21.5587 22.3161 20.7956 22 20 22H14C13.2044 22 12.4413 22.3161 11.8787 22.8787C11.3161 23.4413 11 24.2044 11 25V27H9V25C9 23.6739 9.52678 22.4021 10.4645 21.4645C11.4021 20.5268 12.6739 20 14 20H20C21.3261 20 22.5979 20.5268 23.5355 21.4645C24.4732 22.4021 25 23.6739 25 25V27ZM17 18C16.2121 18 15.4319 17.8448 14.7039 17.5433C13.9759 17.2417 13.3145 16.7998 12.7574 16.2426C12.2002 15.6855 11.7583 15.0241 11.4567 14.2961C11.1552 13.5681 11 12.7879 11 12C11 11.2121 11.1552 10.4319 11.4567 9.7039C11.7583 8.97595 12.2002 8.31451 12.7574 7.75736C13.3145 7.20021 13.9759 6.75825 14.7039 6.45672C15.4319 6.15519 16.2121 6 17 6C18.5913 6 20.1174 6.63214 21.2426 7.75736C22.3679 8.88258 23 10.4087 23 12C23 13.5913 22.3679 15.1174 21.2426 16.2426C20.1174 17.3679 18.5913 18 17 18ZM17 16C18.0609 16 19.0783 15.5786 19.8284 14.8284C20.5786 14.0783 21 13.0609 21 12C21 10.9391 20.5786 9.92172 19.8284 9.17157C19.0783 8.42143 18.0609 8 17 8C15.9391 8 14.9217 8.42143 14.1716 9.17157C13.4214 9.92172 13 10.9391 13 12C13 13.0609 13.4214 14.0783 14.1716 14.8284C14.9217 15.5786 15.9391 16 17 16Z" fill="white"/>
</svg>
